<svg width="29" height="29" viewBox="0 0 29 29" fill="none" xmlns="http://www.w3.org/2000/svg">
<path d="M11.441 20.8735C11.2256 20.8394 11.0101 20.8131 10.7947 20.7711C9.24194 20.4507 8.06754 19.1952 7.89939 17.622C7.83371 17.01 7.84684 16.3902 7.84422 15.7756C7.83896 14.2759 7.84422 12.7736 7.84947 11.2739C7.84947 10.5674 7.97296 9.88712 8.3434 9.27254C9.03701 8.12478 10.0564 7.51019 11.4042 7.45241C11.6696 7.44191 11.9375 7.43403 12.2029 7.42615C12.5445 7.42615 12.886 7.42615 13.2276 7.42615C13.2486 7.4314 13.2696 7.43928 13.2906 7.43928C13.6978 7.44191 14.1024 7.44716 14.5097 7.44716C14.5281 7.44716 14.5465 7.43403 14.5675 7.42615C15.6105 7.42615 16.6509 7.42615 17.694 7.42615C17.9488 7.46817 18.2037 7.49969 18.4559 7.55747C19.9456 7.89891 21.0884 9.18061 21.2382 10.6961C21.2855 11.1767 21.2907 11.6652 21.2907 12.1511C21.296 13.7795 21.296 15.4079 21.2907 17.0363C21.2881 17.7507 21.1305 18.4309 20.7705 19.0587C20.224 20.0068 19.3886 20.5426 18.3376 20.7711C18.117 20.8184 17.891 20.842 17.6677 20.8788C15.5921 20.8735 13.5166 20.8735 11.441 20.8735ZM9.0843 14.1367H9.08693C9.08693 15.0218 9.08168 15.9043 9.08956 16.7894C9.09218 17.0678 9.10795 17.3515 9.16049 17.6246C9.32339 18.4808 9.78054 19.1059 10.6186 19.4159C10.9523 19.5393 11.3017 19.6102 11.6591 19.6128C13.4246 19.6233 15.1875 19.6286 16.9531 19.626C17.3104 19.626 17.6729 19.6128 18.025 19.5498C18.8421 19.4053 19.4621 18.9772 19.8089 18.1998C20.0034 17.7664 20.0822 17.3042 20.0848 16.8341C20.0953 15.3764 20.1006 13.9187 20.1006 12.461C20.1006 11.9357 20.1163 11.4078 20.0533 10.8878C19.893 9.56932 18.9262 8.7026 17.5994 8.68684C15.9757 8.66583 14.3494 8.67371 12.7257 8.68159C12.1977 8.68421 11.6617 8.67633 11.1415 8.74462C10.3559 8.85231 9.75426 9.26203 9.38644 9.99218C9.15787 10.4466 9.08693 10.9298 9.08693 11.4288C9.08168 12.3323 9.0843 13.2358 9.0843 14.1367Z" fill="white"/>
<path d="M14.559 17.5932C12.6358 17.5932 11.0962 16.0462 11.0962 14.1184C11.0962 12.2116 12.6568 10.6567 14.5669 10.6567C16.4664 10.6594 18.0375 12.2274 18.0349 14.1263C18.0323 16.0409 16.4769 17.5932 14.559 17.5932ZM14.5721 16.343C15.8017 16.3299 16.7974 15.3292 16.7922 14.1158C16.7869 12.8971 15.7649 11.8912 14.5432 11.9017C13.3347 11.9122 12.3389 12.9286 12.3468 14.1394C12.3547 15.3581 13.3636 16.3561 14.5721 16.343Z" fill="white"/>
<path d="M18.9577 10.5782C18.9604 11.0064 18.6055 11.3612 18.1719 11.3612C17.7382 11.3638 17.3834 11.0038 17.386 10.565C17.3886 10.1394 17.7329 9.79519 18.1666 9.78993C18.6082 9.7873 18.9551 10.1315 18.9577 10.5782Z" fill="white"/>
<path d="M14.5684 27.6051C21.998 27.6051 28.021 21.5821 28.021 14.1525C28.021 6.72278 21.998 0.699829 14.5684 0.699829C7.13867 0.699829 1.11572 6.72278 1.11572 14.1525C1.11572 21.5821 7.13867 27.6051 14.5684 27.6051Z" stroke="white"/>
</svg>
