<svg width="53" height="11" viewBox="0 0 53 11" fill="none" xmlns="http://www.w3.org/2000/svg">
<path d="M0.43042 0.597412H1.46761V9.90672H0.43042V0.597412Z" fill="#68666B"/>
<path d="M4.12592 3.24748H5.13453V4.2399C5.13453 4.53115 5.10594 4.76847 5.10594 4.76847H5.13453C5.39233 4.25599 5.81715 3.82248 6.35512 3.52288C6.89309 3.22329 7.51998 3.07112 8.15629 3.08567C10.0224 3.08567 10.684 4.02416 10.684 5.6674V9.90675H9.66309V5.90831C9.66309 4.86196 9.48342 3.93426 8.02971 3.93426C7.39973 3.93684 6.78836 4.12261 6.29065 4.46269C5.79293 4.80277 5.43675 5.27811 5.27746 5.81483C5.19125 6.10825 5.1514 6.41074 5.15903 6.71375V9.90675H4.13817V3.24748H4.12592Z" fill="#68666B"/>
<path d="M12.9135 8.45057C13.518 8.96866 14.3281 9.25887 15.1717 9.25961C15.9884 9.25961 16.6907 8.90003 16.6907 8.18089C16.6907 6.7426 12.6073 7.0806 12.6073 4.90879C12.6073 3.71501 13.8323 3.06778 15.1962 3.06778C15.6196 3.04487 16.044 3.09668 16.4444 3.22017C16.8448 3.34366 17.2131 3.53636 17.5278 3.78692L17.0623 4.4773C16.5445 4.06549 15.8649 3.84752 15.1676 3.86962C14.3999 3.86962 13.6649 4.16087 13.6649 4.90159C13.6649 6.37224 17.7483 5.98031 17.7483 8.1737C17.7483 9.25241 16.6825 10.0399 15.1635 10.0399C14.6474 10.0518 14.134 9.9723 13.6535 9.80615C13.173 9.64 12.7353 9.39056 12.3663 9.07263L12.9135 8.45057Z" fill="#68666B"/>
<path d="M19.9208 4.08171H18.9448V3.32661H19.9534V1.40649H20.9621V3.32661H22.8568V4.08171H20.9457V7.39337C20.9457 8.9575 22.0728 9.15527 22.6444 9.15527C22.7608 9.15655 22.877 9.14813 22.9915 9.1301V9.93914C22.8469 9.95755 22.7008 9.96596 22.5546 9.9643C21.6807 9.9643 19.9208 9.7126 19.9208 7.48685V4.08171Z" fill="#68666B"/>
<path d="M24.4901 0.597412H25.56V1.72287H24.4901V0.597412ZM24.5187 3.24746H25.5396V9.91033H24.5187V3.24746Z" fill="#68666B"/>
<path d="M28.104 4.08171H27.1118V3.32661H28.1204V1.40649H29.129V3.32661H31.0237V4.08171H29.129V7.39337C29.129 8.9575 30.256 9.15527 30.8277 9.15527C30.944 9.15655 31.0603 9.14813 31.1748 9.1301V9.93914C31.0301 9.95755 30.884 9.96596 30.7379 9.9643C29.864 9.9643 28.104 9.7126 28.104 7.48685V4.08171Z" fill="#68666B"/>
<path d="M32.5754 3.24731H33.5963V7.24575C33.5963 8.2921 33.776 9.2198 35.2297 9.2198C36.9611 9.2198 38.0268 7.88219 38.0268 6.4403V3.24731H39.0477V9.91017H38.0554V8.91416C38.0554 8.62291 38.084 8.38559 38.084 8.38559H38.0554C37.7984 8.88812 37.3818 9.31442 36.8557 9.61302C36.3297 9.91163 35.7167 10.0698 35.0908 10.0684C33.3145 10.0684 32.5632 9.21979 32.5632 7.48666V3.24731H32.5754Z" fill="#68666B"/>
<path d="M41.6284 4.08171H40.6362V3.32661H41.6448V1.40649H42.6534V3.32661H44.5481V4.08171H42.6534V7.39337C42.6534 8.9575 43.7804 9.15527 44.3521 9.15527C44.4684 9.15655 44.5847 9.14813 44.6992 9.1301V9.93914C44.5545 9.95755 44.4084 9.96596 44.2623 9.9643C43.3884 9.9643 41.6284 9.7126 41.6284 7.48685V4.08171Z" fill="#68666B"/>
<path d="M49.1828 3.08569C51.2736 3.08569 52.3394 4.50241 52.3394 6.15644C52.3394 6.31465 52.3108 6.62029 52.3108 6.62029H46.5041C46.549 8.32826 47.8721 9.25595 49.436 9.25595C50.2886 9.24162 51.106 8.95397 51.735 8.44692L52.2005 9.13729C51.4224 9.72864 50.4311 10.0574 49.4033 10.065C48.8788 10.0811 48.3561 10.0019 47.8678 9.8325C47.3795 9.66308 46.936 9.40702 46.5648 9.08022C46.1937 8.75341 45.9029 8.36287 45.7105 7.93287C45.5181 7.50288 45.4282 7.04262 45.4465 6.58073C45.4505 4.39813 47.1207 3.08569 49.1828 3.08569ZM51.3022 5.88317C51.2409 4.49163 50.2813 3.84439 49.1502 3.84439C48.5048 3.83357 47.8785 4.03747 47.3963 4.41539C46.9142 4.7933 46.6116 5.31744 46.549 5.88317H51.3022Z" fill="#68666B"/>
</svg>
