<svg width="94" height="36" viewBox="0 0 94 36" fill="none" xmlns="http://www.w3.org/2000/svg">
<path d="M36.9512 0H27.7185V0.996013H28.2085C30.826 0.996013 32.4921 1.62526 33.6232 2.62128C34.9912 3.82584 35.6649 5.55179 35.6649 8.11913V19.8124C35.6649 21.3298 35.7221 22.5883 35.7221 22.5883H35.5588C35.5588 22.5883 34.9626 21.6966 34.4277 21.017L17.9672 0H0V1.17939H6.66421V34.7202H0.00408433V35.9248H16.2399V34.9144H15.7662C13.0303 34.9144 11.3643 34.2888 10.1147 33.1849C8.68552 31.876 8.03217 30.2004 8.03217 27.3742V4.40116C8.03217 2.6033 7.91375 0.891738 7.91375 0.891738H8.03217C8.44266 1.56182 8.89951 2.20907 9.40013 2.82983L35.2648 35.9104H36.9512V0Z" fill="#004289"/>
<path d="M87.6801 34.746V1.20878H93.8829V0.0473633H82.6125L77.2142 19.119V34.746H71.2074V35.9075H93.8829V34.746H87.6801Z" fill="#004289"/>
<path d="M61.4438 0L61.9053 23.0485C59.9983 19.8987 59.0183 18.2698 55.7801 13.2322L46.9476 0H36.9553V35.9068H46.7189L46.429 13.3401C48.6002 17.1906 50.9907 20.9421 53.5913 24.5803L61.2152 35.9212H71.2074V0H61.4438Z" fill="#33CC66"/>
</svg>
