<svg width="42" height="10" viewBox="0 0 42 10" fill="none" xmlns="http://www.w3.org/2000/svg">
<path d="M0.43042 0.0373535H1.43903L6.83736 6.73977C7.1967 7.20362 7.71121 7.99828 7.71121 7.99828H7.7398C7.7398 7.99828 7.64996 7.22879 7.64996 6.73977V0.0373535H8.68716V9.33948H7.67855L2.28022 2.63706C1.92088 2.17321 1.40636 1.37856 1.40636 1.37856H1.38595C1.38595 1.37856 1.47578 2.14804 1.47578 2.63706V9.33948H0.438582L0.43042 0.0373535Z" fill="#68666B"/>
<path d="M14.6449 2.51685C16.7356 2.51685 17.8014 3.93356 17.8014 5.59118C17.8014 5.74939 17.7728 6.05503 17.7728 6.05503H11.9662C12.0111 7.763 13.3341 8.69069 14.8981 8.69069C15.7518 8.67592 16.5703 8.38839 17.2011 7.88166L17.6666 8.57203C16.8864 9.16497 15.8919 9.49385 14.8613 9.49973C14.3368 9.51579 13.8141 9.43665 13.3258 9.26724C12.8375 9.09782 12.3939 8.84175 12.0228 8.51495C11.6517 8.18815 11.3609 7.79761 11.1685 7.36761C10.9761 6.93762 10.8862 6.47737 10.9045 6.01548C10.9167 3.82928 12.5991 2.51685 14.6449 2.51685ZM16.7683 5.31072C16.707 3.91917 15.7474 3.27195 14.6163 3.27195C13.9688 3.25837 13.3395 3.46102 12.8547 3.83921C12.37 4.21739 12.0656 4.74309 12.0029 5.31072H16.7683Z" fill="#68666B"/>
<path d="M19.6635 7.88181C20.268 8.39989 21.0781 8.69011 21.9217 8.69084C22.7384 8.69084 23.4407 8.33127 23.4407 7.63011C23.4407 6.17384 19.3573 6.52982 19.3573 4.358C19.3573 3.16423 20.5823 2.517 21.9462 2.517C22.3696 2.49409 22.794 2.5459 23.1944 2.66939C23.5948 2.79289 23.9631 2.98557 24.2778 3.23614L23.8123 3.92652C23.2945 3.51471 22.6149 3.29674 21.9176 3.31884C21.1499 3.31884 20.4149 3.6101 20.4149 4.35081C20.4149 5.82146 24.4983 5.42953 24.4983 7.62292C24.4983 8.70163 23.4284 9.48909 21.9135 9.48909C21.3974 9.501 20.884 9.42152 20.4035 9.25537C19.923 9.08922 19.4853 8.83978 19.1163 8.52184L19.6635 7.88181Z" fill="#68666B"/>
<path d="M26.6667 3.50944H25.6744V2.75434H26.7034V0.834229H27.712V2.75434H29.6067V3.50944H27.712V6.8211C27.712 8.38523 28.8391 8.583 29.4107 8.583C29.5271 8.58428 29.6433 8.57585 29.7578 8.55783V9.38484C29.6132 9.40326 29.4671 9.41167 29.3209 9.41001C28.447 9.41001 26.6871 9.15831 26.6871 6.93256L26.6667 3.50944Z" fill="#68666B"/>
<path d="M31.1952 0.0373535H32.2161V7.58836C32.2161 8.46212 32.6652 8.59517 33.0572 8.59517C33.1429 8.59958 33.2288 8.59958 33.3145 8.59517V9.38622C33.1901 9.4023 33.0646 9.41071 32.9388 9.41139C32.3059 9.41139 31.1952 9.2388 31.1952 7.78253V0.0373535Z" fill="#68666B"/>
<path d="M38.0023 2.5184C40.0931 2.5184 41.1588 3.93511 41.1588 5.59274C41.1588 5.75095 41.1303 6.05659 41.1303 6.05659H35.3236C35.3685 7.76455 36.6916 8.69225 38.2555 8.69225C39.1081 8.67792 39.9255 8.39027 40.5545 7.88321L41.02 8.57359C40.2419 9.16493 39.2506 9.49371 38.2228 9.50129C37.6983 9.51735 37.1756 9.43821 36.6873 9.2688C36.199 9.09938 35.7555 8.84331 35.3843 8.51651C35.0132 8.18971 34.7224 7.79916 34.53 7.36917C34.3376 6.93917 34.2477 6.47892 34.266 6.01703C34.2701 3.83084 35.9565 2.5184 38.0023 2.5184ZM40.1216 5.31227C40.0604 3.92073 39.1008 3.2735 37.9697 3.2735C37.3243 3.26268 36.698 3.46657 36.2158 3.84449C35.7337 4.22241 35.4311 4.74654 35.3685 5.31227H40.1216ZM38.5454 0.0373535H39.7337L38.4393 1.61228H37.5082L38.5454 0.0373535Z" fill="#68666B"/>
</svg>
