<svg width="58" height="11" viewBox="0 0 58 11" fill="none" xmlns="http://www.w3.org/2000/svg">
<path d="M0.43042 0.541504H1.43903L6.83736 7.24392C7.1967 7.70777 7.71121 8.50243 7.71121 8.50243H7.7398C7.7398 8.50243 7.64996 7.73294 7.64996 7.24392V0.541504H8.68716V9.85082H7.67855L2.28022 3.1484C1.92088 2.68455 1.40636 1.8899 1.40636 1.8899H1.38595C1.38595 1.8899 1.47578 2.65938 1.47578 3.1484V9.85082H0.438582L0.43042 0.541504Z" fill="#68666B"/>
<path d="M11.3047 3.19141H12.3255V7.18985C12.3255 8.2362 12.5052 9.1639 13.9589 9.1639C15.6903 9.1639 16.7561 7.82629 16.7561 6.3844V3.19141H17.7769V9.85427H16.7847V8.86186C16.7847 8.5706 16.8132 8.33329 16.8132 8.33329H16.7847C16.5277 8.83582 16.111 9.26211 15.585 9.56072C15.0589 9.85933 14.446 10.0175 13.8201 10.0161C12.0438 10.0161 11.2924 9.16749 11.2924 7.43436V3.19141H11.3047Z" fill="#68666B"/>
<path d="M20.3577 4.02556H19.3531V3.27046H20.3618V1.35034H21.3949V3.27046H23.2896V4.02556H21.3949V7.33722C21.3949 8.90135 22.5219 9.09912 23.0936 9.09912C23.2099 9.1004 23.3262 9.09197 23.4407 9.07395V9.88299C23.296 9.9014 23.1499 9.90982 23.0038 9.90816C22.1299 9.90816 20.3699 9.65646 20.3699 7.43071L20.3577 4.02556Z" fill="#68666B"/>
<path d="M24.9598 3.19161H25.9684V4.37101C25.9684 4.66226 25.9398 4.89958 25.9398 4.89958H25.9684C26.3277 3.89278 27.173 3.12329 28.3613 3.12329C28.4986 3.1241 28.6354 3.13736 28.7696 3.16284V4.05099C28.6452 4.03491 28.5197 4.0265 28.394 4.02582C27.3241 4.02582 26.5278 4.76654 26.1971 5.74817C26.0527 6.16902 25.9811 6.60661 25.9847 7.04622V9.85448H24.9639V3.19161H24.9598Z" fill="#68666B"/>
<path d="M30.2029 0.541504H31.2728V1.66696H30.2029V0.541504ZM30.2315 3.19155H31.2524V9.85441H30.2315V3.19155Z" fill="#68666B"/>
<path d="M33.8168 4.02556H32.8286V3.27046H33.8372V1.35034H34.8458V3.27046H36.7405V4.02556H34.8458V7.33722C34.8458 8.90135 35.9729 9.09912 36.5446 9.09912C36.6609 9.1004 36.7771 9.09197 36.8916 9.07395V9.88299C36.747 9.9014 36.6009 9.90982 36.4547 9.90816C35.5809 9.90816 33.8209 9.65646 33.8209 7.43071L33.8168 4.02556Z" fill="#68666B"/>
<path d="M38.3862 0.541504H39.456V1.66696H38.3862V0.541504ZM38.4188 3.19155H39.4397V9.85441H38.4188V3.19155Z" fill="#68666B"/>
<path d="M45.279 3.03322C46.0634 3.03966 46.8279 3.2508 47.476 3.63992C48.124 4.02904 48.6264 4.57867 48.9196 5.21927C49.2129 5.85988 49.2837 6.56266 49.1233 7.23874C48.9628 7.91481 48.5783 8.53379 48.0182 9.01737C47.4582 9.50095 46.7479 9.82741 45.9771 9.95544C45.2063 10.0835 44.4097 10.0073 43.6881 9.73662C42.9665 9.46593 42.3522 9.01285 41.9231 8.43471C41.494 7.85657 41.2692 7.17934 41.2772 6.4887C41.2766 6.02897 41.3802 5.57377 41.5821 5.14979C41.7839 4.72581 42.0799 4.34161 42.4527 4.01973C42.8255 3.69785 43.2675 3.44478 43.7528 3.27538C44.2382 3.10597 44.7571 3.02364 45.279 3.03322ZM45.279 9.20346C45.6763 9.19935 46.0687 9.12543 46.4331 8.98606C46.7975 8.84668 47.1267 8.64465 47.4013 8.39181C47.6758 8.13896 47.8904 7.84039 48.0322 7.5136C48.1741 7.1868 48.2404 6.83836 48.2273 6.4887C48.2273 5.80017 47.9167 5.13984 47.3638 4.65298C46.8109 4.16611 46.061 3.8926 45.279 3.8926C44.4971 3.8926 43.7472 4.16611 43.1943 4.65298C42.6414 5.13984 42.3308 5.80017 42.3308 6.4887C42.3177 6.83836 42.384 7.1868 42.5259 7.5136C42.6677 7.84039 42.8822 8.13896 43.1568 8.39181C43.4314 8.64465 43.7606 8.84668 44.125 8.98606C44.4894 9.12543 44.8818 9.19935 45.279 9.20346Z" fill="#68666B"/>
<path d="M51.1592 3.19145H52.1678V4.18387C52.1678 4.47512 52.1393 4.71244 52.1393 4.71244H52.1678C52.4265 4.20055 52.8516 3.76756 53.3893 3.46808C53.9271 3.16861 54.5535 3.01605 55.1896 3.02964C57.0558 3.02964 57.7173 3.96813 57.7173 5.61137V9.85072H56.6964V5.85228C56.6964 4.80593 56.5167 3.87823 55.063 3.87823C54.4331 3.88081 53.8217 4.06658 53.324 4.40666C52.8263 4.74674 52.4701 5.22208 52.3108 5.75879C52.2246 6.05222 52.1847 6.35471 52.1924 6.65772V9.85072H51.1715V3.19145H51.1592Z" fill="#68666B"/>
</svg>
