<svg width="30" height="29" viewBox="0 0 30 29" fill="none" xmlns="http://www.w3.org/2000/svg">
<path d="M15.1737 28.3525C22.8098 28.3525 29 22.1622 29 14.5261C29 6.89008 22.8098 0.699829 15.1737 0.699829C7.53766 0.699829 1.34741 6.89008 1.34741 14.5261C1.34741 22.1622 7.53766 28.3525 15.1737 28.3525Z" stroke="white"/>
<path d="M14.1186 20.1314C13.5045 20.1314 12.8725 20.0835 12.2367 19.9873C11.1168 19.8178 9.98317 19.2528 9.66239 19.0836L8.82104 18.6399L9.73194 18.3509C10.7277 18.0351 11.3334 17.8392 12.0832 17.5323C11.3324 17.1816 10.7538 16.5507 10.4752 15.7352L10.2633 15.1147L10.4371 15.1403C10.2723 14.9801 10.1422 14.8175 10.0413 14.6696C9.68265 14.144 9.49273 13.5019 9.53314 12.9516L9.57301 12.4099L9.90918 12.5355C9.76736 12.2772 9.66488 12.0013 9.60464 11.7122C9.45785 11.007 9.5807 10.2578 9.95067 9.60266L10.2435 9.08412L10.6351 9.53787C11.8738 10.9731 13.4426 11.8245 15.3046 12.0737C15.2285 11.568 15.2855 11.08 15.4741 10.6426C15.6937 10.1332 16.0844 9.70131 16.6035 9.39344C17.1801 9.05162 17.8793 8.88598 18.5723 8.92705C19.3076 8.97063 19.9752 9.23638 20.5054 9.69609C20.7643 9.63119 20.9551 9.5619 21.2129 9.46827C21.368 9.41194 21.544 9.34799 21.7641 9.27483L22.5753 9.00522L22.0463 10.4626C22.0812 10.4598 22.1172 10.4574 22.1548 10.4558L23.021 10.418L22.509 11.093C22.4797 11.1316 22.4722 11.1426 22.4618 11.1578C22.4205 11.2178 22.3692 11.2924 21.6664 12.1976C21.4905 12.4242 21.4026 12.7195 21.419 13.029C21.4813 14.2053 21.3316 15.2695 20.974 16.1921C20.6358 17.0649 20.1117 17.8138 19.4164 18.4179C18.556 19.1653 17.4588 19.677 16.1553 19.9387C15.5159 20.0671 14.8293 20.1314 14.1186 20.1314Z" fill="white"/>
</svg>
