<svg width="29" height="29" viewBox="0 0 29 29" fill="none" xmlns="http://www.w3.org/2000/svg">
<path d="M14.3667 28.3525C22.0028 28.3525 28.193 22.1622 28.193 14.5261C28.193 6.89008 22.0028 0.699829 14.3667 0.699829C6.73066 0.699829 0.540405 6.89008 0.540405 14.5261C0.540405 22.1622 6.73066 28.3525 14.3667 28.3525Z" stroke="white"/>
<path fill-rule="evenodd" clip-rule="evenodd" d="M14.1216 18.4203C14.2631 18.4046 14.3963 18.3458 14.503 18.2519C14.5767 18.1415 14.6157 18.0118 14.6151 17.8792C14.6151 17.8792 14.6002 16.7462 15.1162 16.5793C15.6322 16.4123 16.2753 17.6749 16.9634 18.1594C17.2214 18.3696 17.551 18.4722 17.8832 18.4457L19.7305 18.4188C19.7305 18.4188 20.6952 18.3585 20.239 17.5818C19.8753 16.9673 19.4101 16.4185 18.863 15.9584C17.7113 14.8605 17.8609 15.0379 19.2594 13.138C20.1045 11.9805 20.4484 11.2746 20.3437 10.972C20.2501 10.8792 20.1348 10.8112 20.0081 10.7743C19.8813 10.7373 19.7474 10.7325 19.6183 10.7603L17.5318 10.773C17.4416 10.7624 17.3504 10.7793 17.27 10.8215C17.19 10.8812 17.1259 10.9595 17.0831 11.0495C16.8678 11.6201 16.6103 12.1739 16.3127 12.7065C15.3854 14.3127 15.019 14.3977 14.8694 14.2985C14.5105 14.0652 14.6002 13.3639 14.6002 12.8652C14.6002 11.3082 14.832 10.6597 14.1514 10.4913C13.8337 10.4126 13.5064 10.3793 13.1792 10.3922C12.597 10.3377 12.0097 10.3992 11.4516 10.5733C11.2198 10.691 11.0329 10.9549 11.1451 10.9706C11.383 10.9916 11.6032 11.1048 11.7583 11.2858C11.9049 11.5848 11.9767 11.9147 11.9677 12.2474C11.9677 12.2474 12.0874 14.0802 11.6835 14.3075C11.3993 14.4633 11.0179 14.145 10.1878 12.6871C9.90929 12.1785 9.66205 11.6536 9.44742 11.1151C9.41005 11.0235 9.35106 10.9422 9.27543 10.8781C9.17837 10.8129 9.06888 10.7683 8.95381 10.747L6.97944 10.7603C6.83282 10.7603 6.69047 10.8097 6.57557 10.9005C6.54946 10.9566 6.53532 11.0175 6.53403 11.0793C6.53274 11.1412 6.54443 11.2026 6.56817 11.2598C6.56817 11.2598 8.11618 14.9581 9.86618 16.8223C10.2954 17.3118 10.8224 17.7067 11.4135 17.9816C12.0046 18.2565 12.6468 18.4054 13.2989 18.4188H14.1216V18.4203Z" fill="white"/>
</svg>
